<svg width="15" height="6" viewBox="0 0 15 6" fill="none" xmlns="http://www.w3.org/2000/svg">
<path d="M3 5.50044C2.33696 5.50044 1.70107 5.23705 1.23223 4.7682C0.763392 4.29936 0.5 3.66348 0.5 3.00044C0.5 2.3374 0.763392 1.70151 1.23223 1.23267C1.70107 0.763829 2.33696 0.500437 3 0.500437C3.96469 0.48363 4.91003 0.951697 5.71274 1.8436C6.51545 2.7355 7.13828 4.00984 7.5 5.50044C7.86172 4.00984 8.48455 2.7355 9.28726 1.8436C10.09 0.951697 11.0353 0.48363 12 0.500437C12.663 0.500437 13.2989 0.763829 13.7678 1.23267C14.2366 1.70151 14.5 2.3374 14.5 3.00044C14.5 3.66348 14.2366 4.29936 13.7678 4.7682C13.2989 5.23705 12.663 5.50044 12 5.50044" stroke="black" stroke-linecap="round" stroke-linejoin="round"/>
</svg>
